<svg fill="none" height="24" viewBox="0 0 24 24" width="24" xmlns="http://www.w3.org/2000/svg"><g fill="#292d32"><path d="m7.81 2c-1.49 0-2.73.36-3.68 1.05-.42.29-.79.66-1.08 1.08-.69.95-1.05 2.19-1.05 3.68v8.38c0 3.64 2.17 5.81 5.81 5.81h7.47v-20zm4.31 10.53-2.56 2.56c-.15.15-.34.22-.53.22s-.38-.07-.53-.22c-.29-.29-.29-.77 0-1.06l2.02-2.03-2.02-2.03c-.3-.29-.3-.77 0-1.06s.77-.29 1.06 0l2.56 2.56c.29.29.29.77 0 1.06z"/><path d="m16.7793 2.03125v19.94995c1.23-.08 2.27-.4299 3.09-1.0299.42-.2901.79-.66 1.08-1.08.69-.9501 1.05-2.19 1.05-3.68v-8.38005c0-3.44-1.94-5.57-5.22-5.78z"/></g></svg>